<?xml version="1.0" encoding="UTF-8"?>
<svg version="1.1" xmlns="http://www.w3.org/2000/svg" width="163" height="164">
<path d="M0 0 C9.09450809 6.60749859 15.04137263 14.81110347 17 26 C19.15107614 48.75027705 10.1934395 68.60535159 -4 86 C-7.52406426 90.14912765 -11.20456029 94.10255125 -15 98 C-15.58475098 98.60521484 -16.16950195 99.21042969 -16.77197266 99.83398438 C-24.45202449 107.75635336 -32.22650683 115.27745328 -41 122 C-42.07962824 122.84740004 -43.15904687 123.69506716 -44.23828125 124.54296875 C-52.57706883 131 -52.57706883 131 -56 131 C-55.53894252 121.7788504 -53.07913391 112.77201849 -46.5625 105.9375 C-41.09999514 101.10663381 -35.25255659 99.39537858 -28.29296875 97.6484375 C-26.05401907 97.21668681 -26.05401907 97.21668681 -25 96 C-24.96810021 92.43633737 -25.06871647 88.88280629 -25.16015625 85.3203125 C-25 82 -25 82 -23 79 C-23.66 79 -24.32 79 -25 79 C-26 76 -26 76 -25.5 74.125 C-24.81338605 71.93490211 -24.81338605 71.93490211 -25.625 69.5 C-26 67 -26 67 -24.5234375 64.84375 C-24.02070312 64.2353125 -23.51796875 63.626875 -23 63 C-23.73605469 62.5153125 -24.47210938 62.030625 -25.23046875 61.53125 C-32.29131292 56.68100037 -36.17564504 52.80125026 -39.87695312 45.19873047 C-47.31456988 29.94274421 -53.61438869 21.41176095 -70 15 C-70 11.29064811 -69.29063724 10.83194842 -66.75 8.25 C-49.41066952 -8.26943219 -20.70673219 -13.16787338 0 0 Z M-18 9 C-18 11.97 -18 14.94 -18 18 C-21.3 18.33 -24.6 18.66 -28 19 C-28 21.97 -28 24.94 -28 28 C-24.7 28 -21.4 28 -18 28 C-18 31.3 -18 34.6 -18 38 C-15.03 38 -12.06 38 -9 38 C-9 34.7 -9 31.4 -9 28 C-5.7 28 -2.4 28 1 28 C1 25.03 1 22.06 1 19 C-2.3 19 -5.6 19 -9 19 C-9 15.7 -9 12.4 -9 9 C-11.97 9 -14.94 9 -18 9 Z " fill="#7ED0F4" transform="translate(133,20)"/>
<path d="M0 0 C5.08056053 3.57440855 9.17895614 6.90469256 11 13 C11.33201922 19.26409596 9.46872724 23.89893053 6 29 C5.24976562 29.67095703 5.24976562 29.67095703 4.484375 30.35546875 C2.51799677 32.53400884 1.98195253 34.6429247 1.125 37.4375 C-0.45105397 41.95671537 -1.5894954 44.68973569 -6 47 C-9.3125 47.75 -9.3125 47.75 -12 48 C-12.0825 48.5775 -12.165 49.155 -12.25 49.75 C-13.21797787 52.6539336 -14.68694284 54.03740604 -17 56 C-17.66 56 -18.32 56 -19 56 C-18.94779297 57.16015625 -18.94779297 57.16015625 -18.89453125 58.34375 C-18.72056967 65.03712905 -19.18936933 69.91030021 -22 76 C-24.1875 76.4375 -24.1875 76.4375 -27 76 C-30.08104132 72.82267614 -32.08432615 68.95381087 -34 65 C-34.88751953 65.05220703 -34.88751953 65.05220703 -35.79296875 65.10546875 C-40.76119451 65.27566898 -44.0497335 65.32654021 -48 62 C-55.90908733 54.16297725 -60.02285091 46.55477806 -60.2421875 35.32885742 C-60.28962885 22.70501124 -57.647558 14.53600574 -49 5 C-35.44764095 -6.54813694 -15.38818423 -8.07249009 0 0 Z M-17 4 C-17 5.65 -17 7.3 -17 9 C-15.35 9 -13.7 9 -12 9 C-12 7.35 -12 5.7 -12 4 C-13.65 4 -15.3 4 -17 4 Z M-33 5 C-33.66 6.32 -34.32 7.64 -35 9 C-33.68 9.33 -32.36 9.66 -31 10 C-31.33 8.35 -31.66 6.7 -32 5 C-32.33 5 -32.66 5 -33 5 Z M-27 17 C-27.33 18.65 -27.66 20.3 -28 22 C-26.68 22.33 -25.36 22.66 -24 23 C-23.67 21.35 -23.34 19.7 -23 18 C-24.32 17.67 -25.64 17.34 -27 17 Z M-50 18 C-50 18.99 -50 19.98 -50 21 C-49.01 21.33 -48.02 21.66 -47 22 C-46.67 20.68 -46.34 19.36 -46 18 C-47.32 18 -48.64 18 -50 18 Z M-5 19 C-5.33 20.65 -5.66 22.3 -6 24 C-4.68 24.33 -3.36 24.66 -2 25 C-1.67 23.35 -1.34 21.7 -1 20 C-2.32 19.67 -3.64 19.34 -5 19 Z M-38 32 C-38.77242269 33.83700789 -38.77242269 33.83700789 -39 36 C-37.64555699 37.77190909 -37.64555699 37.77190909 -36 39 C-34.68 38.34 -33.36 37.68 -32 37 C-32.33 35.35 -32.66 33.7 -33 32 C-34.65 32 -36.3 32 -38 32 Z M-54 36 C-54.33 37.32 -54.66 38.64 -55 40 C-53.68 40 -52.36 40 -51 40 C-51 39.01 -51 38.02 -51 37 C-51.99 36.67 -52.98 36.34 -54 36 Z M-19 39 C-19 40.32 -19 41.64 -19 43 C-17.68 42.67 -16.36 42.34 -15 42 C-15.33 41.01 -15.66 40.02 -16 39 C-16.99 39 -17.98 39 -19 39 Z M-40 49 C-40.99 49.99 -41.98 50.98 -43 52 C-42.67 52.99 -42.34 53.98 -42 55 C-40.68 54.67 -39.36 54.34 -38 54 C-38 52.68 -38 51.36 -38 50 C-38.66 49.67 -39.32 49.34 -40 49 Z " fill="#30505E" transform="translate(76,43)"/>
<path d="M0 0 C0.99 0.33 1.98 0.66 3 1 C3 2.65 3 4.3 3 6 C5.97 6.495 5.97 6.495 9 7 C9 6.34 9 5.68 9 5 C14.61 5 20.22 5 26 5 C24.75 11.25 24.75 11.25 22 14 C17.71641791 15.35820896 17.71641791 15.35820896 15 14 C15.18652234 18.73967041 15.18652234 18.73967041 17.625 22.5 C18.07875 22.995 18.5325 23.49 19 24 C18.76811536 27.30435606 18.48929359 30.02141281 17 33 C22.28 30.69 27.56 28.38 33 26 C33 26.66 33 27.32 33 28 C34.670625 28.12375 34.670625 28.12375 36.375 28.25 C40 29 40 29 41.5625 30.75 C42.1620176 33.83323338 41.56267669 35.30083117 40 38 C37.9140625 39.1484375 37.9140625 39.1484375 36 40 C36.05220703 41.16015625 36.05220703 41.16015625 36.10546875 42.34375 C36.27943033 49.03712905 35.81063067 53.91030021 33 60 C30.8125 60.4375 30.8125 60.4375 28 60 C24.91895868 56.82267614 22.91567385 52.95381087 21 49 C20.11248047 49.05220703 20.11248047 49.05220703 19.20703125 49.10546875 C14.2446104 49.27547012 11.05746807 49.19679302 7 46 C5 44 5 44 4.125 41.75 C3.07292776 38.88589822 3.07292776 38.88589822 1.0625 36.25 C-4.54941266 27.40698611 -5.20848125 18.21322064 -3.125 8.0625 C-2.43481143 5.13193743 -1.41497643 2.65753977 0 0 Z M1 20 C0.67 21.32 0.34 22.64 0 24 C1.32 24 2.64 24 4 24 C4 23.01 4 22.02 4 21 C3.01 20.67 2.02 20.34 1 20 Z M15 33 C14.01 33.99 13.02 34.98 12 36 C12.33 36.99 12.66 37.98 13 39 C14.32 38.67 15.64 38.34 17 38 C17 36.68 17 35.36 17 34 C16.34 33.67 15.68 33.34 15 33 Z " fill="#395E6F" transform="translate(21,59)"/>
<path d="M0 0 C1.18681726 3.56045177 1.09689832 6.43808337 1.0625 10.1875 C1.05347656 11.45980469 1.04445312 12.73210937 1.03515625 14.04296875 C1.02355469 15.01878906 1.01195312 15.99460937 1 17 C3.84265932 17.33434259 3.84265932 17.33434259 7 17 C9.13346441 15.30224034 9.13346441 15.30224034 10.75 13 C11.7988285 11.63935763 12.87529658 10.29862663 14 9 C14.66 9 15.32 9 16 9 C14.47446448 12.59520781 12.34327686 14.91459919 9.59765625 17.66796875 C8.70626953 18.56193359 7.81488281 19.45589844 6.89648438 20.37695312 C5.96126953 21.30443359 5.02605469 22.23191406 4.0625 23.1875 C3.16208984 24.09564453 2.26167969 25.00378906 1.33398438 25.93945312 C-4.79911653 32.05504339 -11.196152 37.64446593 -18 43 C-18.96087524 43.76437378 -18.96087524 43.76437378 -19.94116211 44.54418945 C-21.44830719 45.73293928 -22.97328275 46.89899371 -24.5 48.0625 C-25.4796875 48.81660156 -26.459375 49.57070312 -27.46875 50.34765625 C-30 52 -30 52 -33 52 C-32.53894252 42.7788504 -30.07913391 33.77201849 -23.5625 26.9375 C-18.09999514 22.10663381 -12.25255659 20.39537858 -5.29296875 18.6484375 C-3.05401907 18.21668681 -3.05401907 18.21668681 -2 17 C-1.96810021 13.43633737 -2.06871647 9.88280629 -2.16015625 6.3203125 C-2 3 -2 3 0 0 Z " fill="#79C8EB" transform="translate(110,99)"/>
<path d="M0 0 C5.12787697 1.93719797 9.2424957 5.24718253 12.8125 9.375 C14.29436826 13.35752094 14.00210487 16.82799132 13.8125 21.0625 C10.8425 21.0625 7.8725 21.0625 4.8125 21.0625 C4.3175 20.0725 4.3175 20.0725 3.8125 19.0625 C2.14638095 19.019779 0.47867115 19.02186168 -1.1875 19.0625 C-1.6825 19.5575 -1.6825 19.5575 -2.1875 20.0625 C-3.95497729 20.18812235 -5.72810292 20.23826558 -7.5 20.25 C-8.46550781 20.26417969 -9.43101563 20.27835938 -10.42578125 20.29296875 C-13.20269158 20.06123224 -14.82223141 19.48390844 -17.1875 18.0625 C-17.1875 17.4025 -17.1875 16.7425 -17.1875 16.0625 C-19.1675 16.0625 -21.1475 16.0625 -23.1875 16.0625 C-23.5175 17.0525 -23.8475 18.0425 -24.1875 19.0625 C-29.4675 19.0625 -34.7475 19.0625 -40.1875 19.0625 C-33.3875 12.2625 -33.3875 12.2625 -31.1875 11.0625 C-27.9375 11.375 -27.9375 11.375 -25.1875 12.0625 C-24.8575 10.7425 -24.5275 9.4225 -24.1875 8.0625 C-20.5575 8.0625 -16.9275 8.0625 -13.1875 8.0625 C-13.1875 8.7225 -13.1875 9.3825 -13.1875 10.0625 C-11.2075 10.0625 -9.2275 10.0625 -7.1875 10.0625 C-7.1875 9.4025 -7.1875 8.7425 -7.1875 8.0625 C-6.5275 8.0625 -5.8675 8.0625 -5.1875 8.0625 C-5.249375 7.299375 -5.31125 6.53625 -5.375 5.75 C-5.1875 3.0625 -5.1875 3.0625 -4 1.1875 C-2.1875 0.0625 -2.1875 0.0625 0 0 Z " fill="#548BA2" transform="translate(71.1875,42.9375)"/>
<path d="M0 0 C10.15183804 -0.35482152 10.15183804 -0.35482152 15 2 C17.4027919 2.55878881 19.53559511 3 22 3 C22 2.34 22 1.68 22 1 C24.31 1 26.62 1 29 1 C28.37294521 6.64349315 28.37294521 6.64349315 26.58203125 8.35546875 C24.4897106 10.53044898 23.92230508 12.64085426 23 15.5 C20.94343047 21.87536553 20.94343047 21.87536553 18 24 C15.20118956 24.5154245 12.88240605 24.22876238 10 24 C7.23776722 21.23776722 7.42143709 18.79293383 7 15 C6.01 15 5.02 15 4 15 C3.13419713 13.06767179 2.28270059 11.12892806 1.4375 9.1875 C0.96183594 8.10855469 0.48617187 7.02960938 -0.00390625 5.91796875 C-1 3 -1 3 0 0 Z " fill="#78C7E9" transform="translate(54,65)"/>
<path d="M0 0 C3.125 -0.1875 3.125 -0.1875 6 0 C6.33 0.66 6.66 1.32 7 2 C10.00778521 3.00259507 12.53820647 3.30314642 15.6875 3.5625 C16.68136719 3.64628906 17.67523438 3.73007812 18.69921875 3.81640625 C19.83810547 3.90728516 19.83810547 3.90728516 21 4 C20.67 5.32 20.34 6.64 20 8 C19.17242187 7.75443359 19.17242187 7.75443359 18.328125 7.50390625 C15.73385993 6.94239586 13.40164589 6.90260992 10.75 6.9375 C9.85796875 6.94652344 8.9659375 6.95554687 8.046875 6.96484375 C7.37140625 6.97644531 6.6959375 6.98804687 6 7 C6.20496094 7.67546875 6.40992187 8.3509375 6.62109375 9.046875 C6.89050781 9.93890625 7.15992187 10.8309375 7.4375 11.75 C7.70433594 12.63171875 7.97117187 13.5134375 8.24609375 14.421875 C8.88468494 16.60565835 9.46775833 18.78835498 10 21 C10.99 21 11.98 21 13 21 C13.22042969 21.84884766 13.22042969 21.84884766 13.4453125 22.71484375 C14.13619834 24.97411985 14.81748922 26.95118095 16 29 C19.07797583 30.14031566 19.07797583 30.14031566 22 30 C19 32 19 32 16 32 C15.67 33.32 15.34 34.64 15 36 C14.33333333 34 13.66666667 32 13 30 C9.9057749 28.07340701 8.53396482 27.22905328 5 27 C1.65576618 28.24142013 -1.27946495 29.79333883 -4.36328125 31.58203125 C-7 33 -7 33 -10 33 C-9.89300781 32.38511719 -9.78601562 31.77023438 -9.67578125 31.13671875 C-9.55589844 30.32847656 -9.43601563 29.52023438 -9.3125 28.6875 C-9.18488281 27.88699219 -9.05726562 27.08648437 -8.92578125 26.26171875 C-9.02079369 23.36633969 -9.95373602 22.92098251 -12 21 C-12.1875 17.3125 -12.1875 17.3125 -12 14 C-10.9275 14 -9.855 14 -8.75 14 C-5.01358689 13.42313825 -5.01358689 13.42313825 -3.64453125 11.15234375 C-2.65559657 9.12806229 -1.7755243 7.11462836 -1 5 C-2.65 5 -4.3 5 -6 5 C-5.38125 4.731875 -4.7625 4.46375 -4.125 4.1875 C-1.7004767 3.04443152 -1.7004767 3.04443152 0 0 Z M1 1 C0.67 2.65 0.34 4.3 0 6 C1.32 6.33 2.64 6.66 4 7 C4.33 5.35 4.66 3.7 5 2 C3.68 1.67 2.36 1.34 1 1 Z M-10 16 C-10.77242269 17.83700789 -10.77242269 17.83700789 -11 20 C-9.64555699 21.77190909 -9.64555699 21.77190909 -8 23 C-6.68 22.34 -5.36 21.68 -4 21 C-4.33 19.35 -4.66 17.7 -5 16 C-6.65 16 -8.3 16 -10 16 Z M9 23 C9 24.32 9 25.64 9 27 C10.32 26.67 11.64 26.34 13 26 C12.67 25.01 12.34 24.02 12 23 C11.01 23 10.02 23 9 23 Z " fill="#3A5F70" transform="translate(48,59)"/>
<path d="M0 0 C1.5625 1.75 1.5625 1.75 2 4 C1.375 6.6875 1.375 6.6875 0 9 C-1.32 9.33 -2.64 9.66 -4 10 C-4.99 15.94 -5.98 21.88 -7 28 C-8.65 28.33 -10.3 28.66 -12 29 C-12.83848804 27.54462432 -13.67063934 26.08559627 -14.5 24.625 C-14.9640625 23.81289062 -15.428125 23.00078125 -15.90625 22.1640625 C-17 20 -17 20 -17 18 C-19.97 18.33 -22.94 18.66 -26 19 C-26.25 16.1875 -26.25 16.1875 -26 13 C-24.0625 11.375 -24.0625 11.375 -22 10 C-21.89365234 9.08541016 -21.89365234 9.08541016 -21.78515625 8.15234375 C-20.52448132 4.69646372 -17.50755313 3.70875013 -14.375 2.1875 C-13.77042969 1.86330078 -13.16585937 1.53910156 -12.54296875 1.20507812 C-7.99508413 -1.0591672 -4.88886838 -1.26026868 0 0 Z " fill="#7FD2F6" transform="translate(61,88)"/>
<path d="M0 0 C0.77150391 -0.01224609 1.54300781 -0.02449219 2.33789062 -0.03710938 C4.33082707 -0.04233104 6.32333338 0.0648659 8.3125 0.1875 C8.9725 0.8475 9.6325 1.5075 10.3125 2.1875 C7.64215456 5.64324116 4.38297287 6.05681309 0.3125 7.1875 C-0.0175 7.8475 -0.3475 8.5075 -0.6875 9.1875 C-4.6475 9.1875 -8.6075 9.1875 -12.6875 9.1875 C-12.6875 8.5275 -12.6875 7.8675 -12.6875 7.1875 C-15.16377099 7.82671965 -15.16377099 7.82671965 -17.6875 9.1875 C-17.97625 9.950625 -18.265 10.71375 -18.5625 11.5 C-20.20097942 15.41414528 -22.93042709 17.32063147 -26.6875 19.1875 C-30.125 19.5 -30.125 19.5 -32.6875 19.1875 C-33.5625 17.125 -33.5625 17.125 -33.6875 14.1875 C-30.52256747 7.34870106 -23.56201237 5.005163 -17.02734375 2.3515625 C-11.24015116 0.3345059 -6.07242837 0.00515049 0 0 Z " fill="#7DCEF2" transform="translate(57.6875,39.8125)"/>
<path d="M0 0 C5.12787697 1.93719797 9.2424957 5.24718253 12.8125 9.375 C14.29436826 13.35752094 14.00210487 16.82799132 13.8125 21.0625 C10.8425 21.0625 7.8725 21.0625 4.8125 21.0625 C4.4825 20.4025 4.1525 19.7425 3.8125 19.0625 C3.07 19.02125 2.3275 18.98 1.5625 18.9375 C-2.25376259 17.72323463 -3.36390905 15.66113257 -5.3046875 12.26171875 C-6.66885667 8.86336811 -6.26558911 6.49890904 -5.1875 3.0625 C-3.61277034 0.54293255 -2.9677284 0.08479224 0 0 Z " fill="#7ED0F5" transform="translate(71.1875,42.9375)"/>
<path d="M0 0 C5.28 0 10.56 0 16 0 C14.75 6.25 14.75 6.25 12 9 C7.71641791 10.35820896 7.71641791 10.35820896 5 9 C5 10.65 5 12.3 5 14 C1.7 14.66 -1.6 15.32 -5 16 C-6.12263725 10.38681376 -5.53121516 8.31421733 -4 3 C-0.65569263 3.72366315 1.34262343 4.81715496 4 7 C3.01 5.824375 3.01 5.824375 2 4.625 C0 2 0 2 0 0 Z " fill="#7ED0F3" transform="translate(31,64)"/>
<path d="M0 0 C9.09450809 6.60749859 15.04137263 14.81110347 17 26 C17.27840597 28.94448571 17.33477423 31.85607294 17.3125 34.8125 C17.30404053 35.99815552 17.30404053 35.99815552 17.29541016 37.20776367 C17.05820287 48.68413393 13.0203016 57.78068056 8 68 C6.64987795 63.94963386 8.18214026 61.6459491 9.8125 57.9375 C14.85425171 45.86618846 17.53131951 32.74300651 13 20 C9.68584086 12.53947957 9.68584086 12.53947957 4 7 C4 6.34 4 5.68 4 5 C3.43796875 4.7215625 2.8759375 4.443125 2.296875 4.15625 C0.75716811 3.38115945 -0.77416405 2.58921908 -2.296875 1.78125 C-3.10640625 1.3584375 -3.9159375 0.935625 -4.75 0.5 C-5.54921875 0.0771875 -6.3484375 -0.345625 -7.171875 -0.78125 C-14.51887102 -3.94735878 -21.6015816 -4.37623092 -29.5 -4.625 C-31.01980469 -4.68300781 -31.01980469 -4.68300781 -32.5703125 -4.7421875 C-35.04670284 -4.83563619 -37.52310151 -4.92139873 -40 -5 C-40 -5.33 -40 -5.66 -40 -6 C-26.61101739 -9.13412514 -11.64412687 -7.40476029 0 0 Z " fill="#2E4C5A" transform="translate(133,20)"/>
<path d="M0 0 C0.66 0.33 1.32 0.66 2 1 C0.69791667 2.43229167 -0.60416667 3.86458333 -1.90625 5.296875 C-3.36024492 7.22360515 -3.36024492 7.22360515 -3 11 C2.08101752 11.61963628 4.62959098 10.39296593 8.51953125 7.37890625 C10.25239881 5.76491615 11.24991712 4.25024865 12 2 C12.5 4.625 12.5 4.625 12 8 C9.51924243 10.41547448 6.91817203 12.08494961 4 14 C10.93 14.495 10.93 14.495 18 15 C13.89441282 17.05279359 12.19793315 17.2216942 7.75 17.125 C6.67234375 17.10695313 5.5946875 17.08890625 4.484375 17.0703125 C3.66453125 17.04710938 2.8446875 17.02390625 2 17 C2 17.66 2 18.32 2 19 C0.02 18.67 -1.96 18.34 -4 18 C-4.12375 17.195625 -4.2475 16.39125 -4.375 15.5625 C-4.58125 14.716875 -4.7875 13.87125 -5 13 C-5.66 12.67 -6.32 12.34 -7 12 C-10.37636653 24.64127706 -11.88881538 34.90512666 -6 47 C-4.69694744 48.69044656 -3.37639625 50.36871556 -2 52 C-2.33 52.99 -2.66 53.98 -3 55 C-11.49188667 43.37518426 -13.75071997 32.61997469 -11.6015625 18.35546875 C-9.7132933 11.55034275 -4.95858966 4.95858966 0 0 Z M-2 14 C-2 14.99 -2 15.98 -2 17 C-1.01 17.33 -0.02 17.66 1 18 C1.33 16.68 1.66 15.36 2 14 C0.68 14 -0.64 14 -2 14 Z " fill="#3E687A" transform="translate(28,47)"/>
<path d="M0 0 C5.02747122 1.00549424 8.27056243 2.34039146 11.7734375 6.15234375 C13.96380564 9.45184735 14.76458959 13.07649315 15 17 C14.53515625 19.2734375 14.53515625 19.2734375 14 21 C13.01 21 12.02 21 11 21 C10.67 19.35 10.34 17.7 10 16 C9.39414062 15.89945313 8.78828125 15.79890625 8.1640625 15.6953125 C4.40649239 14.48800658 2.85232107 11.3315598 1 8 C0.11838831 5.66259874 -0.45063789 3.44715847 -1 1 C-0.67 0.67 -0.34 0.34 0 0 Z " fill="#7DCEF2" transform="translate(19,84)"/>
<path d="M0 0 C10.55808656 -0.3690205 10.55808656 -0.3690205 15 2 C13.53779205 5.05034768 11.89026449 7.90371026 10.0625 10.75 C9.55847656 11.54921875 9.05445313 12.3484375 8.53515625 13.171875 C7.77525391 14.07679687 7.77525391 14.07679687 7 15 C6.01 15 5.02 15 4 15 C3.13419713 13.06767179 2.28270059 11.12892806 1.4375 9.1875 C0.96183594 8.10855469 0.48617187 7.02960938 -0.00390625 5.91796875 C-1 3 -1 3 0 0 Z " fill="#7ED0F5" transform="translate(54,65)"/>
<path d="M0 0 C0.78052734 -0.01224609 1.56105469 -0.02449219 2.36523438 -0.03710938 C4.39070035 -0.04235217 6.41572552 0.06515672 8.4375 0.1875 C9.0975 0.8475 9.7575 1.5075 10.4375 2.1875 C7.76715456 5.64324116 4.50797287 6.05681309 0.4375 7.1875 C0.1075 7.8475 -0.2225 8.5075 -0.5625 9.1875 C-2.02073212 9.2145043 -3.47910675 9.23389787 -4.9375 9.25 C-5.74960937 9.26160156 -6.56171875 9.27320313 -7.3984375 9.28515625 C-9.5625 9.1875 -9.5625 9.1875 -11.5625 8.1875 C-11.5625 5.8775 -11.5625 3.5675 -11.5625 1.1875 C-7.6986104 -0.1004632 -4.02572278 0.00334085 0 0 Z " fill="#7ECFF4" transform="translate(57.5625,39.8125)"/>
<path d="M0 0 C3.63 0 7.26 0 11 0 C11 0.33 11 0.66 11 1 C8.03 1 5.06 1 2 1 C2.185625 2.464375 2.37125 3.92875 2.5625 5.4375 C2.75462854 6.95318071 2.91062197 8.47480724 3 10 C2 11 2 11 -0.28515625 11.09765625 C-1.65994141 11.08025391 -1.65994141 11.08025391 -3.0625 11.0625 C-3.98160156 11.05347656 -4.90070313 11.04445313 -5.84765625 11.03515625 C-6.55792969 11.02355469 -7.26820312 11.01195312 -8 11 C-8 13.97 -8 16.94 -8 20 C-4.7 20 -1.4 20 2 20 C2 23.3 2 26.6 2 30 C4.97 30 7.94 30 11 30 C11 26.7 11 23.4 11 20 C14.3 20 17.6 20 21 20 C21 17.03 21 14.06 21 11 C21.33 11 21.66 11 22 11 C22 14.3 22 17.6 22 21 C18.7 21 15.4 21 12 21 C12 24.63 12 28.26 12 32 C8.37 32 4.74 32 1 32 C1 28.37 1 24.74 1 21 C-2.63 21 -6.26 21 -10 21 C-10 17.37 -10 13.74 -10 10 C-6.7 10 -3.4 10 0 10 C0 6.7 0 3.4 0 0 Z " fill="#304F5C" transform="translate(113,28)"/>
<path d="M0 0 C1.18681726 3.56045177 1.09689832 6.43808337 1.0625 10.1875 C1.05347656 11.45980469 1.04445313 12.73210937 1.03515625 14.04296875 C1.02355469 15.01878906 1.01195313 15.99460937 1 17 C3.84265932 17.33434259 3.84265932 17.33434259 7 17 C9.13346441 15.30224034 9.13346441 15.30224034 10.75 13 C11.7988285 11.63935763 12.87529658 10.29862663 14 9 C14.66 9 15.32 9 16 9 C14.6415798 12.04332765 13.11536976 14.12309151 10.7421875 16.453125 C10.11699219 17.071875 9.49179688 17.690625 8.84765625 18.328125 C8.19667969 18.96234375 7.54570313 19.5965625 6.875 20.25 C6.21628906 20.8996875 5.55757812 21.549375 4.87890625 22.21875 C3.25703357 23.81711727 1.6306719 25.41061897 0 27 C0 24 0 24 2 22 C2.6425235 19.93125966 2.6425235 19.93125966 3 18 C2.443125 18.26554687 1.88625 18.53109375 1.3125 18.8046875 C-11.8373916 24.8909549 -11.8373916 24.8909549 -18 23 C-17.43152344 22.81824219 -16.86304687 22.63648437 -16.27734375 22.44921875 C-11.39298997 20.85915366 -6.68970973 19.09540222 -2 17 C-2.02320312 16.02417969 -2.04640625 15.04835938 -2.0703125 14.04296875 C-2.08835937 12.77066406 -2.10640625 11.49835938 -2.125 10.1875 C-2.14820312 8.92292969 -2.17140625 7.65835938 -2.1953125 6.35546875 C-2 3 -2 3 0 0 Z " fill="#395E70" transform="translate(110,99)"/>
<path d="M0 0 C0.99 0.33 1.98 0.66 3 1 C3.97924143 7.45770027 4.51871177 12.86748439 2 19 C-1.125 20.5 -1.125 20.5 -4 21 C-4.27166506 13.52921098 -3.57770698 6.67437773 0 0 Z " fill="#7DCFF2" transform="translate(21,59)"/>
<path d="M0 0 C0.89203125 0.20367187 1.7840625 0.40734375 2.703125 0.6171875 C3.37859375 0.78476563 4.0540625 0.95234375 4.75 1.125 C3.75 4.125 3.75 4.125 1.1328125 5.73046875 C0.05773437 6.25253906 -1.01734375 6.77460937 -2.125 7.3125 C-3.19492187 7.84230469 -4.26484375 8.37210938 -5.3671875 8.91796875 C-8.25 10.125 -8.25 10.125 -11.25 10.125 C-11.02139942 8.66315942 -10.76629608 7.20544581 -10.5 5.75 C-10.36078125 4.93789062 -10.2215625 4.12578125 -10.078125 3.2890625 C-9.25 1.125 -9.25 1.125 -7.5 -0.21875 C-4.65390125 -1.04886214 -2.87131294 -0.6800478 0 0 Z " fill="#7CCDF1" transform="translate(49.25,81.875)"/>
<path d="M0 0 C0.66 0 1.32 0 2 0 C2.83764268 1.95649397 3.66999059 3.91525556 4.5 5.875 C4.9640625 6.96554688 5.428125 8.05609375 5.90625 9.1796875 C7 12 7 12 7 14 C-0.75 13.125 -0.75 13.125 -3 12 C-3.875 9.3125 -3.875 9.3125 -4 6 C-2.1875 2.625 -2.1875 2.625 0 0 Z " fill="#7DCFF2" transform="translate(49,67)"/>
<path d="M0 0 C3.75091532 0.7850753 4.70644265 2.75082655 6.76953125 5.8359375 C7.6875 7.5625 7.6875 7.5625 7.6875 9.5625 C5.93784642 9.61679959 4.18770213 9.65542823 2.4375 9.6875 C1.46296875 9.71070313 0.4884375 9.73390625 -0.515625 9.7578125 C-3.3321498 9.56112781 -4.92199036 9.00818916 -7.3125 7.5625 C-3.41514901 0.83071192 -3.41514901 0.83071192 0 0 Z " fill="#7ED0F4" transform="translate(61.3125,53.4375)"/>
<path d="M0 0 C0.66 0.33 1.32 0.66 2 1 C1.57847656 1.45890625 1.15695313 1.9178125 0.72265625 2.390625 C0.17480469 3.00421875 -0.37304688 3.6178125 -0.9375 4.25 C-1.48277344 4.85328125 -2.02804688 5.4565625 -2.58984375 6.078125 C-4.06212799 8.08467305 -4.57529189 9.57002449 -5 12 C-5.66 12 -6.32 12 -7 12 C-10.37636653 24.64127706 -11.88881538 34.90512666 -6 47 C-4.69694744 48.69044656 -3.37639625 50.36871556 -2 52 C-2.33 52.99 -2.66 53.98 -3 55 C-11.49188667 43.37518426 -13.75071997 32.61997469 -11.6015625 18.35546875 C-9.7132933 11.55034275 -4.95858966 4.95858966 0 0 Z " fill="#2F4E5E" transform="translate(28,47)"/>
<path d="M0 0 C4.24181523 2.18150497 7.6391617 4.8140521 10 9 C11.83200293 15.1327415 10.95264895 19.44901998 8 25 C7.67 24.01 7.34 23.02 7 22 C4.69 22 2.38 22 0 22 C0 22.66 0 23.32 0 24 C-1.9914056 24.38133299 -3.99279077 24.71325582 -6 25 C-7 24 -7 24 -7.125 21 C-7 18 -7 18 -6 17 C-4.33382885 16.95936168 -2.66611905 16.957279 -1 17 C-0.67 17.99 -0.34 18.98 0 20 C2.97 20 5.94 20 9 20 C8.62247287 13.77080241 8.12072194 9.94486633 4 5 C2.68441297 3.97676564 1.35622245 2.96873032 0 2 C0 1.34 0 0.68 0 0 Z M-5 18 C-5.33 19.65 -5.66 21.3 -6 23 C-4.68 23.33 -3.36 23.66 -2 24 C-1.67 22.35 -1.34 20.7 -1 19 C-2.32 18.67 -3.64 18.34 -5 18 Z " fill="#2C4856" transform="translate(76,44)"/>
<path d="M0 0 C2.375 0.875 2.375 0.875 4.375 3.875 C4.375 5.195 4.375 6.515 4.375 7.875 C-0.905 7.875 -6.185 7.875 -11.625 7.875 C-3.57954545 -0.17045455 -3.57954545 -0.17045455 0 0 Z " fill="#7DCFF3" transform="translate(42.625,54.125)"/>
<path d="M0 0 C1.21236328 0.01353516 1.21236328 0.01353516 2.44921875 0.02734375 C3.37154297 0.04474609 3.37154297 0.04474609 4.3125 0.0625 C3.4375 7.8125 3.4375 7.8125 2.3125 10.0625 C-0.97504511 9.48360619 -2.62422495 8.51421589 -4.9375 6.125 C-5.45828125 5.60035156 -5.9790625 5.07570313 -6.515625 4.53515625 C-7.6875 3.0625 -7.6875 3.0625 -7.6875 1.0625 C-4.80538698 0.10179566 -2.98899956 -0.04331883 0 0 Z " fill="#7DCEF1" transform="translate(33.6875,80.9375)"/>
<path d="M0 0 C0 2.31 0 4.62 0 7 C0.66 7.33 1.32 7.66 2 8 C1.01 8 0.02 8 -1 8 C-1 7.34 -1 6.68 -1 6 C-3.47627099 6.63921965 -3.47627099 6.63921965 -6 8 C-7.36078035 10.52372901 -7.36078035 10.52372901 -8 13 C-8.33 12.34 -8.66 11.68 -9 11 C-9.66 10.67 -10.32 10.34 -11 10 C-10.67 9.34 -10.34 8.68 -10 8 C-11.32 7.34 -12.64 6.68 -14 6 C-11.47732009 4.31821339 -9.18908177 3.09893258 -6.4375 1.875 C-5.65246094 1.52179687 -4.86742187 1.16859375 -4.05859375 0.8046875 C-2 0 -2 0 0 0 Z " fill="#7BCDEF" transform="translate(46,41)"/>
<path d="M0 0 C1.09466308 3.24774212 0.93224533 4.88306841 -0.4375 8 C-1.79435979 11.11530141 -2 12.39200742 -2 16 C0.29294372 14.20994733 2.58439317 12.41803862 4.875 10.625 C5.52597656 10.11710938 6.17695312 9.60921875 6.84765625 9.0859375 C7.47285156 8.59609375 8.09804687 8.10625 8.7421875 7.6015625 C9.3182373 7.15119629 9.89428711 6.70083008 10.48779297 6.23681641 C12.13466754 4.93178492 12.13466754 4.93178492 14 3 C14.99 3.33 15.98 3.66 17 4 C-0.73786408 19 -0.73786408 19 -5 19 C-4.5464821 11.97047248 -2.87940913 6.4150557 0 0 Z " fill="#335361" transform="translate(82,132)"/>
<path d="M0 0 C-1.59328125 0.65355469 -1.59328125 0.65355469 -3.21875 1.3203125 C-14.32767685 5.9393563 -14.32767685 5.9393563 -24 13 C-24.56074219 13.51046875 -25.12148437 14.0209375 -25.69921875 14.546875 C-27.22232349 15.9233142 -27.22232349 15.9233142 -27 18 C-25.02 18.99 -23.04 19.98 -21 21 C-21.66 21.33 -22.32 21.66 -23 22 C-25.35981813 21.06421005 -27.69631264 20.06652192 -30 19 C-30 15.29064811 -29.29063724 14.83194842 -26.75 12.25 C-20.80204314 6.5137142 -8.79137466 -3.38129795 0 0 Z " fill="#2B4755" transform="translate(93,16)"/>
<path d="M0 0 C3.3 0 6.6 0 10 0 C8.73913043 5.04347826 8.73913043 5.04347826 6 7 C3.3125 7.1875 3.3125 7.1875 1 7 C0.67 4.69 0.34 2.38 0 0 Z " fill="#7DCFF2" transform="translate(47,51)"/>
<path d="M0 0 C1.32 0 2.64 0 4 0 C4.14695312 0.56589844 4.29390625 1.13179688 4.4453125 1.71484375 C5.13619834 3.97411985 5.81748922 5.95118095 7 8 C10.07797583 9.14031566 10.07797583 9.14031566 13 9 C10 11 10 11 7 11 C6.67 12.32 6.34 13.64 6 15 C5.33333333 13 4.66666667 11 4 9 C0.48809191 7.77030122 0.48809191 7.77030122 -3 7 C-2.67 5.35 -2.34 3.7 -2 2 C-1.34 2 -0.68 2 0 2 C0 1.34 0 0.68 0 0 Z M0 2 C0 3.32 0 4.64 0 6 C1.32 5.67 2.64 5.34 4 5 C3.67 4.01 3.34 3.02 3 2 C2.01 2 1.02 2 0 2 Z " fill="#325362" transform="translate(57,80)"/>
<path d="M0 0 C0.99 0 1.98 0 3 0 C3.70133599 1.57725347 4.385583 3.16211333 5.0625 4.75 C5.44535156 5.63171875 5.82820313 6.5134375 6.22265625 7.421875 C7.04600008 10.15256309 6.9773992 11.36901347 6 14 C5.34 14 4.68 14 4 14 C3.67 14.99 3.34 15.98 3 17 C3 16.34 3 15.68 3 15 C-1.455 14.01 -1.455 14.01 -6 13 C-6 11.35 -6 9.7 -6 8 C-5.67 8.99 -5.34 9.98 -5 11 C-1.7 11.66 1.6 12.32 5 13 C3.35 8.71 1.7 4.42 0 0 Z " fill="#50859D" transform="translate(51,68)"/>
<path d="M0 0 C1.20220203 3.53094302 0.79532349 6.12898982 0.0625 9.75 C-0.13214844 10.73484375 -0.32679687 11.7196875 -0.52734375 12.734375 C-0.68332031 13.48203125 -0.83929688 14.2296875 -1 15 C-2.65 15.33 -4.3 15.66 -6 16 C-7.65 12.7 -9.3 9.4 -11 6 C-8.525 6.495 -8.525 6.495 -6 7 C-6 8.65 -6 10.3 -6 12 C-4.68 12 -3.36 12 -2 12 C-1.93941406 11.30132812 -1.87882812 10.60265625 -1.81640625 9.8828125 C-1.73261719 8.97273438 -1.64882813 8.06265625 -1.5625 7.125 C-1.48128906 6.22007813 -1.40007813 5.31515625 -1.31640625 4.3828125 C-1 2 -1 2 0 0 Z " fill="#7AC9EB" transform="translate(55,101)"/>
<path d="M0 0 C3.63 0 7.26 0 11 0 C11 0.33 11 0.66 11 1 C8.03 1 5.06 1 2 1 C2.185625 2.464375 2.37125 3.92875 2.5625 5.4375 C2.75462854 6.95318071 2.91062197 8.47480724 3 10 C2 11 2 11 -0.50390625 11.09765625 C-2.01791016 11.08025391 -2.01791016 11.08025391 -3.5625 11.0625 C-4.57441406 11.05347656 -5.58632812 11.04445313 -6.62890625 11.03515625 C-7.41136719 11.02355469 -8.19382812 11.01195312 -9 11 C-9 14.3 -9 17.6 -9 21 C-9.33 21 -9.66 21 -10 21 C-10 17.37 -10 13.74 -10 10 C-6.7 10 -3.4 10 0 10 C0 6.7 0 3.4 0 0 Z " fill="#3D6475" transform="translate(113,28)"/>
<path d="M0 0 C1.70884005 1.62339805 3.37446717 3.29319053 5 5 C5 5.66 5 6.32 5 7 C2.33333333 5.66666667 -0.33333333 4.33333333 -3 3 C-3.144375 4.258125 -3.28875 5.51625 -3.4375 6.8125 C-3.73748686 9.42667123 -4.15813297 11.47439892 -5 14 C-5.66 14 -6.32 14 -7 14 C-6.48041715 9.62065881 -5.94324258 5.31196609 -5 1 C-3.35 1.33 -1.7 1.66 0 2 C0 1.34 0 0.68 0 0 Z " fill="#4E8096" transform="translate(30,64)"/>
<path d="M0 0 C4.38889325 0.66498383 7.9811485 2.18757677 12 4 C12 4.66 12 5.32 12 6 C10.88625 5.79375 9.7725 5.5875 8.625 5.375 C7.42875 5.25125 6.2325 5.1275 5 5 C2.64046906 7.35953094 2.50858587 8.77895617 2 12 C1.67 12 1.34 12 1 12 C1 10.35 1 8.7 1 7 C-0.98 7 -2.96 7 -5 7 C-5 6.67 -5 6.34 -5 6 C-2.69 5.34 -0.38 4.68 2 4 C2 3.34 2 2.68 2 2 C1.34 1.34 0.68 0.68 0 0 Z " fill="#335866" transform="translate(64,39)"/>
<path d="M0 0 C7.425 0.99 7.425 0.99 15 2 C14.67 3.32 14.34 4.64 14 6 C9.38 5.34 4.76 4.68 0 4 C0 2.68 0 1.36 0 0 Z " fill="#4D7F95" transform="translate(54,61)"/>
<path d="M0 0 C0.66 0 1.32 0 2 0 C2.54269531 1.09699219 3.08539063 2.19398437 3.64453125 3.32421875 C4.3670797 4.77869939 5.08974196 6.2331235 5.8125 7.6875 C6.16892578 8.40873047 6.52535156 9.12996094 6.89257812 9.87304688 C8.78806219 13.68140477 10.74207126 17.38873857 13 21 C6.09141276 18.08726936 3.56619702 10.38734028 0.69921875 3.8828125 C0 2 0 2 0 0 Z " fill="#304F5F" transform="translate(90,56)"/>
<path d="M0 0 C1.485 0.309375 1.485 0.309375 3 0.625 C3 1.285 3 1.945 3 2.625 C1.989375 2.74875 0.97875 2.8725 -0.0625 3 C-5.69542617 4.51744134 -8.14721454 9.92527441 -11 14.625 C-11.71875 12.953125 -11.71875 12.953125 -12 10.625 C-9.44261736 5.93646515 -5.88737299 -0.07238573 0 0 Z " fill="#5B91AA" transform="translate(73,67.375)"/>
<path d="M0 0 C0.66 0.66 1.32 1.32 2 2 C1.625 5.125 1.625 5.125 1 8 C-2.35291118 8.37254569 -3.6038423 8.31050198 -6.3125 6.1875 C-8 4 -8 4 -8 1 C-7.01 1 -6.02 1 -5 1 C-4.67 2.65 -4.34 4.3 -4 6 C-3.01 6 -2.02 6 -1 6 C-0.67 4.02 -0.34 2.04 0 0 Z " fill="#4C7B90" transform="translate(34,99)"/>
<path d="M0 0 C3.125 -0.1875 3.125 -0.1875 6 0 C6.125 6.75 6.125 6.75 5 9 C3.02 9 1.04 9 -1 9 C-1 7.68 -1 6.36 -1 5 C-2.65 5 -4.3 5 -6 5 C-5.38125 4.731875 -4.7625 4.46375 -4.125 4.1875 C-1.7004767 3.04443152 -1.7004767 3.04443152 0 0 Z M1 1 C0.67 2.65 0.34 4.3 0 6 C1.32 6.33 2.64 6.66 4 7 C4.33 5.35 4.66 3.7 5 2 C3.68 1.67 2.36 1.34 1 1 Z " fill="#2C4B58" transform="translate(48,59)"/>
<path d="M0 0 C0.33 0.99 0.66 1.98 1 3 C-0.93108963 4.03290841 -2.870118 5.05098672 -4.8125 6.0625 C-5.89144531 6.63097656 -6.97039063 7.19945313 -8.08203125 7.78515625 C-11 9 -11 9 -14 8 C-11.07096942 5.66635648 -8.11431797 3.95039164 -4.75 2.3125 C-3.41195312 1.65701172 -3.41195312 1.65701172 -2.046875 0.98828125 C-1.03367187 0.49908203 -1.03367187 0.49908203 0 0 Z " fill="#5B94AC" transform="translate(53,85)"/>
<path d="M0 0 C2.31 0 4.62 0 7 0 C7 0.99 7 1.98 7 3 C4 5.1875 4 5.1875 1 7 C0.67 4.69 0.34 2.38 0 0 Z " fill="#7AC9EA" transform="translate(76,66)"/>
<path d="M0 0 C0.66 0 1.32 0 2 0 C0.59601721 4.10110762 -1.37087038 6.98089159 -4.125 10.3125 C-4.84945312 11.19550781 -5.57390625 12.07851562 -6.3203125 12.98828125 C-7.15175781 13.98408203 -7.15175781 13.98408203 -8 15 C-8.33 14.01 -8.66 13.02 -9 12 C-7.3828125 9.58984375 -7.3828125 9.58984375 -5.125 6.9375 C-2.26898182 3.66229684 -2.26898182 3.66229684 0 0 Z " fill="#2E4E5C" transform="translate(135,93)"/>
<path d="M0 0 C0.99 0.33 1.98 0.66 3 1 C2.34 1 1.68 1 1 1 C1 2.65 1 4.3 1 6 C2.32 5.34 3.64 4.68 5 4 C4.67 2.68 4.34 1.36 4 0 C4.99 0.33 5.98 0.66 7 1 C7.125 3.375 7.125 3.375 7 6 C6.34 6.66 5.68 7.32 5 8 C0.44444444 7.44444444 0.44444444 7.44444444 -1 6 C-1.125 3.5 -1.125 3.5 -1 1 C-0.67 0.67 -0.34 0.34 0 0 Z " fill="#2D4A59" transform="translate(33,92)"/>
<path d="M0 0 C0.66 0.33 1.32 0.66 2 1 C1.175 1.78375 0.35 2.5675 -0.5 3.375 C-3.22988506 5.63721264 -3.22988506 5.63721264 -3 8 C-1.02 8.99 0.96 9.98 3 11 C2.01 11.495 2.01 11.495 1 12 C-1.35981813 11.06421005 -3.69631264 10.06652192 -6 9 C-6 6 -6 6 -4.6875 4.39453125 C-4.130625 3.87246094 -3.57375 3.35039062 -3 2.8125 C-2.443125 2.28269531 -1.88625 1.75289062 -1.3125 1.20703125 C-0.6628125 0.60955078 -0.6628125 0.60955078 0 0 Z " fill="#2F505D" transform="translate(69,26)"/>
<path d="M0 0 C0.66 0.33 1.32 0.66 2 1 C1.401875 1.639375 0.80375 2.27875 0.1875 2.9375 C-2.53243319 6.74540646 -3.71725373 10.53954137 -5 15 C-5.33 15 -5.66 15 -6 15 C-5.83560987 8.27494919 -4.78944649 4.78944649 0 0 Z " fill="#315160" transform="translate(81,69)"/>
<path d="M0 0 C0.99 0.33 1.98 0.66 3 1 C2.34 3.31 1.68 5.62 1 8 C0.01 8 -0.98 8 -2 8 C-2.20086443 4.28400809 -2.1519437 3.22791555 0 0 Z " fill="#6EB4D4" transform="translate(60,89)"/>
<path d="M0 0 C3.375 0.3125 3.375 0.3125 7 1 C9 4 9 4 8.625 6.6875 C8.41875 7.450625 8.2125 8.21375 8 9 C7.01 9 6.02 9 5 9 C5.66 8.01 6.32 7.02 7 6 C6.4946875 5.65066406 5.989375 5.30132812 5.46875 4.94140625 C4.49421875 4.25884766 4.49421875 4.25884766 3.5 3.5625 C2.8503125 3.11003906 2.200625 2.65757813 1.53125 2.19140625 C1.0259375 1.79824219 0.520625 1.40507813 0 1 C0 0.67 0 0.34 0 0 Z " fill="#345A6B" transform="translate(103,77)"/>
<path d="M0 0 C0.33 0 0.66 0 1 0 C1.375 2.6875 1.375 2.6875 1 6 C-0.8141615 8.28066018 -2.48994912 9.37584943 -5 11 C-5.99 10.67 -6.98 10.34 -8 10 C-3.25 5.125 -3.25 5.125 -1 4 C-0.34786708 1.97536745 -0.34786708 1.97536745 0 0 Z " fill="#5892AA" transform="translate(39,49)"/>
<path d="M0 0 C0 2.31 0 4.62 0 7 C0.66 7.33 1.32 7.66 2 8 C1.01 8 0.02 8 -1 8 C-1 7.34 -1 6.68 -1 6 C-1.99 6 -2.98 6 -4 6 C-4.33 4.35 -4.66 2.7 -5 1 C-2 0 -2 0 0 0 Z " fill="#61A0BA" transform="translate(46,41)"/>
<path d="M0 0 C0.33 0.99 0.66 1.98 1 3 C-2.63 3.33 -6.26 3.66 -10 4 C-9.67 3.01 -9.34 2.02 -9 1 C-5.94152152 0.45627049 -3.11227195 0 0 0 Z " fill="#528298" transform="translate(36,78)"/>
<path d="M0 0 C3.35882075 1.41231461 5.13329047 3.03368978 7.3125 5.9375 C8.11107422 6.97197266 8.11107422 6.97197266 8.92578125 8.02734375 C9.28027344 8.67832031 9.63476562 9.32929687 10 10 C9.67 10.99 9.34 11.98 9 13 C7.68568828 11.20966193 6.3736047 9.41768797 5.0625 7.625 C4.33160156 6.62726562 3.60070312 5.62953125 2.84765625 4.6015625 C1 2 1 2 0 0 Z " fill="#305362" transform="translate(80,43)"/>
<path d="M0 0 C-1.40844718 3.21524305 -3.10344786 5.32183868 -5.625 7.75 C-6.57246094 8.67039062 -6.57246094 8.67039062 -7.5390625 9.609375 C-8.02117187 10.06828125 -8.50328125 10.5271875 -9 11 C-9 7.25983417 -8.0658409 6.54723807 -5.625 3.8125 C-4.99851562 3.09707031 -4.37203125 2.38164063 -3.7265625 1.64453125 C-2 0 -2 0 0 0 Z " fill="#2E4D5A" transform="translate(126,108)"/>
<path d="M0 0 C0.99 0.33 1.98 0.66 3 1 C-0.3 3.64 -3.6 6.28 -7 9 C-7 6 -7 6 -5.57421875 4.359375 C-4.95160156 3.82828125 -4.32898438 3.2971875 -3.6875 2.75 C-3.07261719 2.20859375 -2.45773438 1.6671875 -1.82421875 1.109375 C-1.22222656 0.74328125 -0.62023437 0.3771875 0 0 Z " fill="#2F4B5A" transform="translate(96,135)"/>
<path d="M0 0 C2.0625 2.0625 2.0625 2.0625 4 5 C3.75 8.8125 3.75 8.8125 3 12 C2.34 12 1.68 12 1 12 C0 9 0 9 0.5 7.125 C1.1206595 4.48719714 0.65047135 2.6018854 0 0 Z " fill="#2B4953" transform="translate(107,87)"/>
<path d="M0 0 C1.84765625 0.33984375 1.84765625 0.33984375 4.0625 0.9375 C5.16271484 1.22947266 5.16271484 1.22947266 6.28515625 1.52734375 C7.13400391 1.76130859 7.13400391 1.76130859 8 2 C5 4 5 4 2 4 C1.67 5.32 1.34 6.64 1 8 C0.21944061 5.65832183 -0.51671752 3.4164124 -1 1 C-0.67 0.67 -0.34 0.34 0 0 Z " fill="#375A6A" transform="translate(62,87)"/>
<path d="M0 0 C2.02045442 0.60183749 4.02111039 1.27306096 6 2 C6.33 2.66 6.66 3.32 7 4 C4.69 4.33 2.38 4.66 0 5 C0 3.35 0 1.7 0 0 Z " fill="#76C3E4" transform="translate(31,69)"/>
<path d="M0 0 C2 3.75 2 3.75 2 6 C3.98 5.67 5.96 5.34 8 5 C8 5.99 8 6.98 8 8 C5.03 7.505 5.03 7.505 2 7 C1.67 7.66 1.34 8.32 1 9 C-1.125 3.375 -1.125 3.375 0 0 Z " fill="#5B91AA" transform="translate(46,52)"/>
<path d="M0 0 C0.66 0.99 1.32 1.98 2 3 C2.66 2.34 3.32 1.68 4 1 C4.33 1.99 4.66 2.98 5 4 C3.02 5.32 1.04 6.64 -1 8 C-0.67 5.36 -0.34 2.72 0 0 Z " fill="#7ACAEC" transform="translate(80,141)"/>
<path d="M0 0 C2.64 0 5.28 0 8 0 C7.67 1.65 7.34 3.3 7 5 C6.67 4.01 6.34 3.02 6 2 C4.02 2 2.04 2 0 2 C0 1.34 0 0.68 0 0 Z " fill="#386170" transform="translate(77,64)"/>
<path d="M0 0 C0.66 0.33 1.32 0.66 2 1 C-1.96 4.465 -1.96 4.465 -6 8 C-6 5 -6 5 -4.6875 3.61328125 C-3.125 2.40885417 -1.5625 1.20442708 0 0 Z " fill="#32525E" transform="translate(107,126)"/>
<path d="M0 0 C0.66 0.33 1.32 0.66 2 1 C1.25 7.75 1.25 7.75 -1 10 C-2.31223496 6.06329512 -1.24296256 3.87511856 0 0 Z " fill="#50809A" transform="translate(38,82)"/>
<path d="M0 0 C1.65 0 3.3 0 5 0 C5.33 1.65 5.66 3.3 6 5 C5.67 4.01 5.34 3.02 5 2 C4.01 2 3.02 2 2 2 C1.67 2.99 1.34 3.98 1 5 C0.34 5 -0.32 5 -1 5 C-0.67 3.35 -0.34 1.7 0 0 Z " fill="#2B4A57" transform="translate(20,78)"/>
<path d="M0 0 C0.66 0.66 1.32 1.32 2 2 C1.34 2.66 0.68 3.32 0 4 C-0.64767793 6.57061311 -0.64767793 6.57061311 -1 9 C-1.33 9 -1.66 9 -2 9 C-2 7.35 -2 5.7 -2 4 C-3.98 4 -5.96 4 -8 4 C-8 3.67 -8 3.34 -8 3 C-6.865625 2.690625 -5.73125 2.38125 -4.5625 2.0625 C-1.21224901 1.37075469 -1.21224901 1.37075469 0 0 Z " fill="#4E859B" transform="translate(67,42)"/>
<path d="M0 0 C-0.33 1.32 -0.66 2.64 -1 4 C-3.31 3.34 -5.62 2.68 -8 2 C-4.77208445 -0.1519437 -3.71599191 -0.20086443 0 0 Z " fill="#5993AD" transform="translate(69,63)"/>
<path d="M0 0 C0.33 0.99 0.66 1.98 1 3 C-1.64738916 4.4606285 -2.89448334 5 -6 5 C-6 4.34 -6 3.68 -6 3 C-4.02 2.01 -2.04 1.02 0 0 Z " fill="#5088A1" transform="translate(53,85)"/>
</svg>
